<?xml version="1.0" encoding="utf-8"?>
<!-- Generator: Adobe Illustrator 20.0.0, SVG Export Plug-In . SVG Version: 6.00 Build 0)  -->
<svg version="1.1" id="Layer_1" xmlns="http://www.w3.org/2000/svg" xmlns:xlink="http://www.w3.org/1999/xlink" x="0px" y="0px"
	 viewBox="0 0 360 50" style="enable-background:new 0 0 360 50;" xml:space="preserve">
<style type="text/css">
	.st0{fill:#FFFFFF;}
</style>
<g>
	<g>
		<path class="st0" d="M61.2,2.4c-12.4,0-22.4,10-22.4,22.4s10,22.4,22.4,22.4s22.4-10,22.4-22.4C83.5,12.4,73.5,2.4,61.2,2.4z
			 M45.5,26.3c0,0.3-0.3,0.6-0.6,0.6H44c-0.3,0-0.6-0.3-0.6-0.6v-2.8c0-0.3,0.3-0.6,0.6-0.6h0.9c0.3,0,0.6,0.3,0.6,0.6V26.3z
			 M48.5,27.3c0,0.3-0.3,0.6-0.6,0.6H47c-0.3,0-0.6-0.3-0.6-0.6v-5.2c0-0.3,0.3-0.6,0.6-0.6h0.9c0.3,0,0.6,0.3,0.6,0.6V27.3z
			 M51.1,28.7c0,0.3-0.3,0.6-0.6,0.6h-0.9c-0.3,0-0.6-0.3-0.6-0.6v-7.5c0-0.3,0.3-0.6,0.6-0.6h0.9c0.3,0,0.6,0.3,0.6,0.6V28.7z
			 M54.5,32.6c0,0.3-0.3,0.6-0.6,0.6H53c-0.3,0-0.6-0.3-0.6-0.6V17.5c0-0.3,0.3-0.6,0.6-0.6h0.9c0.3,0,0.6,0.3,0.6,0.6V32.6z
			 M57.8,36.1c0,0.3-0.3,0.6-0.6,0.6h-0.9c-0.3,0-0.6-0.3-0.6-0.6V13.3c0-0.3,0.3-0.6,0.6-0.6h0.9c0.3,0,0.6,0.3,0.6,0.6V36.1z
			 M61.2,40.3c0,0.3-0.3,0.6-0.6,0.6h-0.9c-0.3,0-0.6-0.3-0.6-0.6V9.6c0-0.3,0.3-0.6,0.6-0.6h0.9c0.3,0,0.6,0.3,0.6,0.6V40.3z
			 M64.6,32.6c0,0.3-0.3,0.6-0.6,0.6h-0.9c-0.3,0-0.6-0.3-0.6-0.6V16.7c0-0.3,0.3-0.6,0.6-0.6H64c0.3,0,0.6,0.3,0.6,0.6V32.6z
			 M67.9,36.2c0,0.3-0.3,0.6-0.6,0.6h-0.9c-0.3,0-0.6-0.3-0.6-0.6V13.6c0-0.3,0.3-0.6,0.6-0.6h0.9c0.3,0,0.6,0.3,0.6,0.6V36.2z
			 M71.3,33.6c0,0.3-0.3,0.6-0.6,0.6h-0.9c-0.3,0-0.6-0.3-0.6-0.6V15.9c0-0.3,0.3-0.6,0.6-0.6h0.9c0.3,0,0.6,0.3,0.6,0.6V33.6z
			 M74.6,28.8c0,0.3-0.3,0.6-0.6,0.6h-0.9c-0.3,0-0.6-0.3-0.6-0.6V21c0-0.3,0.3-0.6,0.6-0.6H74c0.3,0,0.6,0.3,0.6,0.6V28.8z
			 M77.9,28c0,0.3-0.3,0.6-0.6,0.6h-0.9c-0.3,0-0.6-0.3-0.6-0.6v-6.1c0-0.3,0.3-0.6,0.6-0.6h0.9c0.3,0,0.6,0.3,0.6,0.6V28z
			 M79.9,26.7H79c-0.3,0-0.6-0.3-0.6-0.6v-3.4c0-0.3,0.3-0.6,0.6-0.6h0.9c0.3,0,0.6,0.3,0.6,0.6v3.4C80.5,26.4,80.2,26.7,79.9,26.7z
			"/>
	</g>
	<g>
		<path class="st0" d="M6.6,45.3V38h14.7c2.3,0,4.1-0.5,5.6-1.6s2.2-2.5,2.2-4.2c0-0.9-0.2-1.7-0.6-2.4s-0.9-1.3-1.6-1.9
			c-0.7-0.5-1.5-0.9-2.5-1.2s-2-0.4-3.1-0.4H18c-1.7,0-3.3-0.3-4.8-0.8c-1.5-0.6-2.7-1.3-3.8-2.4s-1.9-2.2-2.5-3.6
			C6.3,18.1,6,16.6,6,14.9c0-1.7,0.3-3.2,0.9-4.6c0.6-1.4,1.5-2.6,2.7-3.7c1.1-1,2.5-1.9,4.1-2.4c1.6-0.6,3.4-0.9,5.3-0.9h14v7.3
			H18.6c-1.5,0-2.8,0.4-3.7,1.3c-0.9,0.8-1.3,1.9-1.3,3c0,1.3,0.5,2.4,1.4,3.2c0.9,0.9,2.1,1.3,3.6,1.3h4.1c1.9,0,3.6,0.3,5.2,0.9
			c1.6,0.6,2.9,1.5,4.1,2.7c1.1,1.1,2,2.5,2.7,4.1c0.6,1.6,1,3.3,1,5.2s-0.3,3.6-1,5.2c-0.7,1.6-1.7,2.9-2.9,4.1
			c-1.3,1.1-2.8,2-4.5,2.7c-1.8,0.6-3.7,1-5.9,1L6.6,45.3L6.6,45.3z"/>
		<path class="st0" d="M120,3.3v23c0,6.1-1.4,10.8-4.2,14.1c-2.8,3.3-6.8,4.9-11.9,4.9h-1.4c-5.1,0-9.1-1.6-11.9-4.9
			c-2.8-3.2-4.2-7.9-4.2-14.1v-23h7.3v23c0,2.2,0.2,4.1,0.5,5.5c0.3,1.5,0.8,2.7,1.5,3.6c0.7,0.9,1.6,1.6,2.7,1.9
			c1.1,0.4,2.4,0.6,4,0.6h1.4c1.5,0,2.9-0.2,4-0.6c1.1-0.4,2-1,2.7-1.9s1.2-2.1,1.6-3.6c0.3-1.5,0.5-3.3,0.5-5.5v-23H120z"/>
		<path class="st0" d="M131.4,16.1v29.1h-7.1V6.9c0-1.1,0.3-2,0.9-2.7s1.5-1,2.6-1c0.7,0,1.4,0.2,2,0.5c0.6,0.3,1.3,0.9,1.9,1.7
			l20.5,27V3.3h7v38.4c0,2.7-0.9,4-2.7,4c-0.9,0-1.7-0.2-2.4-0.6c-0.7-0.4-1.4-1-2.3-1.9L131.4,16.1z"/>
		<path class="st0" d="M164.1,45.3v-42h12.1c3.1,0,6,0.5,8.6,1.5s4.8,2.4,6.7,4.2s3.3,4,4.4,6.5c1,2.5,1.6,5.3,1.6,8.3
			s-0.5,5.8-1.6,8.5c-1.1,2.6-2.5,4.9-4.4,6.8c-1.9,1.9-4.1,3.4-6.7,4.5c-2.6,1.1-5.4,1.6-8.5,1.6L164.1,45.3L164.1,45.3z
			 M171.4,10.6V38h4.7c2.1,0,4-0.3,5.7-1s3.1-1.6,4.4-2.8c1.2-1.2,2.2-2.6,2.8-4.3c0.7-1.7,1-3.4,1-5.4s-0.3-3.8-1-5.5
			s-1.6-3.2-2.9-4.4c-1.2-1.2-2.7-2.2-4.4-2.9s-3.6-1-5.6-1h-4.7V10.6z"/>
		<path class="st0" d="M201.4,45.3V38h14.7c2.3,0,4.1-0.5,5.6-1.6s2.2-2.5,2.2-4.2c0-0.9-0.2-1.7-0.6-2.4c-0.4-0.7-0.9-1.3-1.6-1.9
			c-0.7-0.5-1.5-0.9-2.5-1.2s-2-0.4-3.1-0.4h-3.3c-1.7,0-3.3-0.3-4.8-0.8c-1.5-0.6-2.7-1.3-3.8-2.4s-1.9-2.2-2.5-3.6
			c-0.6-1.4-0.9-2.9-0.9-4.6c0-1.7,0.3-3.2,0.9-4.6c0.6-1.4,1.5-2.6,2.7-3.7c1.1-1,2.5-1.9,4.1-2.4c1.6-0.6,3.4-0.9,5.3-0.9h13.9
			v7.3h-14.3c-1.5,0-2.8,0.4-3.7,1.3c-0.9,0.8-1.3,1.9-1.3,3c0,1.3,0.5,2.4,1.4,3.2c0.9,0.9,2.1,1.3,3.6,1.3h4.1
			c1.9,0,3.6,0.3,5.2,0.9c1.6,0.6,2.9,1.5,4.1,2.7c1.1,1.1,2,2.5,2.7,4.1c0.6,1.6,1,3.3,1,5.2s-0.3,3.6-1,5.2
			c-0.7,1.6-1.7,2.9-2.9,4.1c-1.3,1.1-2.8,2-4.5,2.7c-1.8,0.6-3.7,1-5.9,1L201.4,45.3L201.4,45.3z"/>
		<path class="st0" d="M254.8,45.3c-3.1,0-6-0.5-8.6-1.6s-4.8-2.6-6.7-4.5c-1.8-1.9-3.3-4.2-4.3-6.8s-1.6-5.4-1.6-8.5
			s0.5-5.8,1.5-8.3s2.5-4.7,4.3-6.5s4.1-3.2,6.7-4.2c2.6-1,5.5-1.5,8.6-1.5h6.1v7.3h-6.1c-2,0-3.9,0.3-5.6,1
			c-1.7,0.7-3.2,1.7-4.4,2.9s-2.2,2.7-2.9,4.4s-1,3.5-1,5.5s0.3,3.8,1,5.4c0.7,1.7,1.6,3.1,2.9,4.3c1.2,1.2,2.7,2.1,4.4,2.8
			s3.6,1,5.7,1h6.1v7.3L254.8,45.3L254.8,45.3z"/>
		<path class="st0" d="M287.9,5.2c0.5-0.8,1.1-1.4,1.9-1.7c0.7-0.3,1.5-0.5,2.3-0.5c0.9,0,1.7,0.3,2.2,1c0.6,0.7,0.8,1.6,0.8,2.7
			v38.7h-7.3V17l-18,28.4h-8.7L287.9,5.2z"/>
		<path class="st0" d="M307.1,33.5v11.8h-7.3v-42h13.9c2.4,0,4.6,0.4,6.5,1.2s3.5,1.8,4.8,3.2c1.3,1.3,2.4,2.9,3.1,4.8
			c0.7,1.8,1.1,3.8,1.1,6s-0.4,4.2-1.1,6s-1.8,3.4-3.1,4.8c-1.3,1.3-3,2.4-4.9,3.1c-1.9,0.8-4,1.1-6.4,1.1L307.1,33.5L307.1,33.5z
			 M313.5,26.2c1.3,0,2.5-0.2,3.5-0.6c1.1-0.4,2-0.9,2.7-1.6c0.8-0.7,1.3-1.5,1.8-2.5c0.4-1,0.6-2,0.6-3.1s-0.2-2.1-0.6-3.1
			s-1-1.8-1.8-2.5s-1.7-1.2-2.7-1.6c-1.1-0.4-2.2-0.6-3.5-0.6h-6.4v15.6L313.5,26.2L313.5,26.2z"/>
		<path class="st0" d="M353,45.3h-20.8v-42h20.5v7.3h-13.2v9.7h11.4v7.3h-11.4v10.3H353V45.3z"/>
	</g>
	<rect x="277.4" y="24.7" class="st0" width="13.3" height="6.1"/>
</g>
</svg>
