<?xml version="1.0" encoding="utf-8"?>
<!-- Generator: Adobe Illustrator 20.0.0, SVG Export Plug-In . SVG Version: 6.00 Build 0)  -->
<svg version="1.1" id="Layer_1" xmlns="http://www.w3.org/2000/svg" xmlns:xlink="http://www.w3.org/1999/xlink" x="0px" y="0px"
	 viewBox="0 0 504 64.8" style="enable-background:new 0 0 504 64.8;" xml:space="preserve">
<style type="text/css">
	.st0{fill:#FFFFFF;}
</style>
<g>
	<g>
		<path class="st0" d="M79.4,4.1c-15.9,0-28.7,12.9-28.7,28.7c0,15.9,12.9,28.7,28.7,28.7s28.7-12.9,28.7-28.7
			C108.1,16.9,95.2,4.1,79.4,4.1z M59.3,34.8c0,0.4-0.3,0.8-0.8,0.8h-1.1c-0.4,0-0.8-0.3-0.8-0.8v-3.6c0-0.4,0.3-0.8,0.8-0.8h1.1
			c0.4,0,0.8,0.3,0.8,0.8V34.8z M63.1,36.2c0,0.4-0.3,0.8-0.8,0.8h-1.1c-0.4,0-0.8-0.3-0.8-0.8v-6.7c0-0.4,0.3-0.8,0.8-0.8h1.1
			c0.4,0,0.8,0.3,0.8,0.8V36.2z M66.5,37.8c0,0.4-0.3,0.8-0.8,0.8h-1.1c-0.4,0-0.8-0.3-0.8-0.8v-9.6c0-0.4,0.3-0.8,0.8-0.8h1.1
			c0.4,0,0.8,0.3,0.8,0.8V37.8z M70.8,42.9c0,0.4-0.3,0.8-0.8,0.8h-1.1c-0.4,0-0.8-0.3-0.8-0.8V23.5c0-0.4,0.3-0.8,0.8-0.8h1.1
			c0.4,0,0.8,0.3,0.8,0.8V42.9z M75.1,47.4c0,0.4-0.3,0.8-0.8,0.8h-1.1c-0.4,0-0.8-0.3-0.8-0.8V18.1c0-0.4,0.3-0.8,0.8-0.8h1.1
			c0.4,0,0.8,0.3,0.8,0.8V47.4z M79.4,52.8c0,0.4-0.3,0.8-0.8,0.8h-1.1c-0.4,0-0.8-0.3-0.8-0.8V13.4c0-0.4,0.3-0.8,0.8-0.8h1.1
			c0.4,0,0.8,0.3,0.8,0.8V52.8z M83.8,42.9c0,0.4-0.3,0.8-0.8,0.8H82c-0.4,0-0.8-0.3-0.8-0.8V22.5c0-0.4,0.3-0.8,0.8-0.8h1.1
			c0.4,0,0.8,0.3,0.8,0.8V42.9z M88,47.5c0,0.4-0.3,0.8-0.8,0.8h-1.1c-0.4,0-0.8-0.3-0.8-0.8V18.4c0-0.4,0.3-0.8,0.8-0.8h1.1
			c0.4,0,0.8,0.3,0.8,0.8V47.5z M92.4,44.2c0,0.4-0.3,0.8-0.8,0.8h-1.1c-0.4,0-0.8-0.3-0.8-0.8V21.5c0-0.4,0.3-0.8,0.8-0.8h1.1
			c0.4,0,0.8,0.3,0.8,0.8V44.2z M96.7,38c0,0.4-0.3,0.8-0.8,0.8h-1.1c-0.4,0-0.8-0.3-0.8-0.8V27.9c0-0.4,0.3-0.8,0.8-0.8h1.1
			c0.4,0,0.8,0.3,0.8,0.8V38z M100.8,37c0,0.4-0.3,0.8-0.8,0.8h-1.1c-0.4,0-0.8-0.3-0.8-0.8v-7.8c0-0.4,0.3-0.8,0.8-0.8h1.1
			c0.4,0,0.8,0.3,0.8,0.8V37z M103.4,35.3h-1.1c-0.4,0-0.8-0.3-0.8-0.8v-4.3c0-0.4,0.3-0.8,0.8-0.8h1.1c0.4,0,0.8,0.3,0.8,0.8v4.3
			C104.2,35,103.9,35.3,103.4,35.3z"/>
	</g>
	<g>
		<path class="st0" d="M9.3,59.2v-9.4h18.9c2.9,0,5.3-0.7,7.2-2.1c1.9-1.4,2.8-3.2,2.8-5.4c0-1.1-0.3-2.1-0.8-3
			c-0.5-0.9-1.2-1.7-2.1-2.4c-0.9-0.7-1.9-1.2-3.2-1.6c-1.2-0.4-2.6-0.6-4-0.6h-4.3c-2.2,0-4.3-0.4-6.2-1.1c-1.9-0.7-3.5-1.7-4.9-3
			c-1.4-1.3-2.5-2.9-3.2-4.6c-0.8-1.8-1.2-3.7-1.2-5.9c0-2.1,0.4-4.1,1.2-5.9c0.8-1.8,1.9-3.4,3.4-4.7c1.5-1.3,3.2-2.4,5.3-3.1
			s4.4-1.1,6.8-1.1h17.9v9.4H24.8c-2,0-3.6,0.5-4.7,1.6c-1.2,1.1-1.7,2.4-1.7,3.9c0,1.7,0.6,3,1.8,4.1c1.2,1.1,2.7,1.7,4.7,1.7h5.3
			c2.4,0,4.6,0.4,6.6,1.2c2,0.8,3.8,1.9,5.3,3.4c1.5,1.5,2.6,3.2,3.5,5.3c0.8,2,1.2,4.2,1.2,6.6c0,2.4-0.4,4.7-1.3,6.7
			c-0.9,2-2.1,3.8-3.8,5.3c-1.6,1.5-3.6,2.6-5.8,3.5c-2.3,0.8-4.8,1.2-7.5,1.2H9.3z"/>
		<path class="st0" d="M462.4,58.7v-9.4h18.9c2.9,0,5.3-0.7,7.2-2.1c1.9-1.4,2.8-3.2,2.8-5.4c0-1.1-0.3-2.1-0.8-3
			c-0.5-0.9-1.2-1.7-2.1-2.4c-0.9-0.7-1.9-1.2-3.2-1.6c-1.2-0.4-2.6-0.6-4-0.6H477c-2.2,0-4.3-0.4-6.2-1.1c-1.9-0.7-3.5-1.7-4.9-3
			c-1.4-1.3-2.5-2.9-3.2-4.6c-0.8-1.8-1.2-3.7-1.2-5.9c0-2.1,0.4-4.1,1.2-5.9c0.8-1.8,1.9-3.4,3.4-4.7c1.5-1.3,3.2-2.4,5.3-3.1
			s4.4-1.1,6.8-1.1h17.9v9.4h-18.4c-2,0-3.6,0.5-4.7,1.6c-1.2,1.1-1.7,2.4-1.7,3.9c0,1.7,0.6,3,1.8,4.1c1.2,1.1,2.7,1.7,4.7,1.7h5.3
			c2.4,0,4.6,0.4,6.6,1.2c2,0.8,3.8,1.9,5.3,3.4c1.5,1.5,2.6,3.2,3.5,5.3c0.8,2,1.2,4.2,1.2,6.6c0,2.4-0.4,4.7-1.3,6.7
			c-0.9,2-2.1,3.8-3.8,5.3c-1.6,1.5-3.6,2.6-5.8,3.5c-2.3,0.8-4.8,1.2-7.5,1.2H462.4z"/>
		<path class="st0" d="M154.9,5.2v29.6c0,7.8-1.8,13.9-5.4,18c-3.6,4.2-8.7,6.3-15.2,6.3h-1.8c-6.6,0-11.7-2.1-15.2-6.3
			c-3.6-4.2-5.4-10.2-5.4-18.1V5.2h9.4v29.6c0,2.9,0.2,5.2,0.6,7.1c0.4,1.9,1.1,3.4,2,4.6c0.9,1.2,2.1,2,3.5,2.5
			c1.4,0.5,3.1,0.7,5.2,0.7h1.8c2,0,3.7-0.3,5.1-0.8c1.4-0.5,2.6-1.3,3.5-2.5c0.9-1.2,1.6-2.7,2-4.6c0.4-1.9,0.6-4.3,0.6-7.1V5.2
			H154.9z"/>
		<path class="st0" d="M169.6,21.8v37.4h-9.1V9.9c0-1.4,0.4-2.6,1.2-3.4c0.8-0.9,1.9-1.3,3.4-1.3c0.9,0,1.8,0.2,2.6,0.6
			c0.8,0.4,1.6,1.1,2.5,2.2l26.3,34.6V5.2h9v49.3c0,3.5-1.2,5.2-3.5,5.2c-1.2,0-2.2-0.3-3-0.8c-0.9-0.5-1.8-1.3-2.9-2.5L169.6,21.8z
			"/>
		<path class="st0" d="M211.5,59.2V5.2H227c4,0,7.7,0.6,11,1.9c3.3,1.3,6.2,3.1,8.6,5.4c2.4,2.3,4.3,5.1,5.6,8.3
			c1.3,3.2,2,6.8,2,10.7c0,3.9-0.7,7.5-2,10.9c-1.4,3.4-3.2,6.3-5.6,8.7c-2.4,2.5-5.3,4.4-8.6,5.8c-3.3,1.4-7,2.1-10.9,2.1H211.5z
			 M220.9,14.6v35.1h6.1c2.7,0,5.1-0.4,7.3-1.3c2.2-0.9,4-2.1,5.6-3.6c1.6-1.5,2.8-3.4,3.6-5.5c0.9-2.1,1.3-4.4,1.3-6.9
			c0-2.5-0.4-4.9-1.3-7.1c-0.9-2.2-2.1-4.1-3.7-5.6c-1.6-1.6-3.4-2.8-5.6-3.7c-2.2-0.9-4.6-1.3-7.2-1.3H220.9z"/>
		<path class="st0" d="M259.5,59.2v-9.4h18.9c2.9,0,5.3-0.7,7.2-2.1c1.9-1.4,2.8-3.2,2.8-5.4c0-1.1-0.3-2.1-0.8-3
			c-0.5-0.9-1.2-1.7-2.1-2.4c-0.9-0.7-1.9-1.2-3.2-1.6c-1.2-0.4-2.6-0.6-4-0.6h-4.3c-2.2,0-4.3-0.4-6.2-1.1c-1.9-0.7-3.5-1.7-4.9-3
			c-1.4-1.3-2.5-2.9-3.2-4.6c-0.8-1.8-1.2-3.7-1.2-5.9c0-2.1,0.4-4.1,1.2-5.9c0.8-1.8,1.9-3.4,3.4-4.7c1.5-1.3,3.2-2.4,5.3-3.1
			s4.4-1.1,6.8-1.1h17.9v9.4h-18.4c-2,0-3.6,0.5-4.7,1.6c-1.2,1.1-1.7,2.4-1.7,3.9c0,1.7,0.6,3,1.8,4.1c1.2,1.1,2.7,1.7,4.7,1.7h5.3
			c2.4,0,4.6,0.4,6.6,1.2c2,0.8,3.8,1.9,5.3,3.4c1.5,1.5,2.6,3.2,3.5,5.3c0.8,2,1.2,4.2,1.2,6.6c0,2.4-0.4,4.7-1.3,6.7
			c-0.9,2-2.1,3.8-3.8,5.3c-1.6,1.5-3.6,2.6-5.8,3.5c-2.3,0.8-4.8,1.2-7.5,1.2H259.5z"/>
		<path class="st0" d="M328,59.2c-4,0-7.7-0.7-11-2.1c-3.3-1.4-6.2-3.3-8.6-5.8c-2.4-2.5-4.2-5.4-5.6-8.7c-1.3-3.4-2-7-2-10.9
			c0-3.9,0.7-7.5,2-10.7c1.3-3.2,3.2-6,5.5-8.3c2.4-2.3,5.2-4.1,8.6-5.4c3.3-1.3,7-1.9,11.1-1.9h7.9v9.4H328c-2.6,0-5,0.4-7.2,1.3
			c-2.2,0.9-4.1,2.1-5.7,3.7c-1.6,1.6-2.8,3.4-3.7,5.6c-0.9,2.2-1.3,4.6-1.3,7.1c0,2.5,0.4,4.9,1.3,7c0.9,2.1,2.1,4,3.7,5.5
			c1.6,1.5,3.5,2.7,5.7,3.6c2.2,0.9,4.6,1.3,7.3,1.3h7.9v9.4H328z"/>
		<path class="st0" d="M370.5,7.7c0.6-1,1.4-1.7,2.4-2.2c0.9-0.4,1.9-0.7,3-0.7c1.2,0,2.2,0.4,2.9,1.3c0.7,0.9,1.1,2,1.1,3.4v49.6
			h-9.3V22.7l-23.1,36.4h-11.2L370.5,7.7z"/>
		<path class="st0" d="M395.2,44v15.1h-9.4V5.2h17.9c3.1,0,5.9,0.5,8.3,1.5c2.4,1,4.5,2.4,6.2,4.1c1.7,1.7,3,3.8,3.9,6.2
			c0.9,2.4,1.4,4.9,1.4,7.7s-0.5,5.3-1.4,7.7c-0.9,2.4-2.2,4.4-4,6.2c-1.7,1.7-3.8,3.1-6.3,4c-2.4,1-5.2,1.5-8.2,1.5H395.2z
			 M403.4,34.6c1.7,0,3.2-0.3,4.5-0.8c1.4-0.5,2.5-1.2,3.5-2.1c1-0.9,1.7-2,2.2-3.2c0.5-1.2,0.8-2.5,0.8-4c0-1.4-0.3-2.8-0.8-4
			c-0.5-1.2-1.3-2.3-2.2-3.2c-1-0.9-2.1-1.6-3.5-2.1c-1.4-0.5-2.9-0.7-4.5-0.7h-8.2v20H403.4z"/>
		<path class="st0" d="M454.1,59.2h-26.8V5.2h26.3v9.4h-16.9v12.5h14.6v9.3h-14.6v13.3h17.4V59.2z"/>
	</g>
	<rect x="357.1" y="32.8" class="st0" width="17.1" height="7.9"/>
</g>
</svg>
